<?xml version="1.0" standalone="no"?>
<!DOCTYPE svg PUBLIC "-//W3C//DTD SVG 20010904//EN"
 "http://www.w3.org/TR/2001/REC-SVG-20010904/DTD/svg10.dtd">
<svg version="1.0" xmlns="http://www.w3.org/2000/svg"
 width="1920.000000pt" height="392.000000pt" viewBox="0 0 1920.000000 392.000000"
 preserveAspectRatio="xMidYMid meet">

<g transform="translate(0.000000,392.000000) scale(0.100000,-0.100000)"
fill="#000000" stroke="none">
<path d="M1540 3895 c-343 -55 -642 -192 -898 -407 -627 -531 -816 -1423 -458
-2163 213 -438 595 -774 1054 -925 177 -58 310 -81 503 -87 246 -8 414 15 634
88 939 312 1449 1331 1140 2276 -199 608 -707 1061 -1343 1200 -100 21 -148
26 -332 29 -152 2 -240 -1 -300 -11z m880 -1795 l0 -1080 -190 0 -190 0 0 936
0 936 -147 -4 c-169 -6 -245 -25 -329 -82 -105 -71 -149 -178 -142 -340 11
-216 88 -320 391 -528 64 -44 120 -84 123 -89 2 -4 -117 -191 -266 -414 l-270
-405 -206 0 c-161 0 -204 3 -198 13 8 12 431 640 465 688 l18 26 -47 34 c-68
49 -187 165 -239 231 -53 69 -106 179 -130 268 -23 90 -23 291 1 380 54 199
197 356 393 432 161 63 267 75 676 77 l287 1 0 -1080z"/>
<path d="M4820 3458 c0 -52 -40 -1192 -45 -1298 -25 -488 -75 -796 -156 -967
l-30 -63 -90 0 -89 0 0 -465 0 -465 220 0 220 0 0 280 0 280 680 0 680 0 0
-280 0 -280 225 0 225 0 0 465 0 465 -130 0 -130 0 0 1175 0 1175 -790 0 -790
0 0 -22z m1110 -1338 l0 -990 -450 0 -450 0 20 50 c90 229 131 612 160 1495 6
182 13 354 16 383 l5 52 350 0 349 0 0 -990z"/>
<path d="M7510 2763 c-448 -75 -710 -451 -710 -1018 0 -368 116 -664 330 -841
66 -54 211 -127 300 -151 50 -14 104 -18 235 -18 147 0 181 3 248 23 252 72
437 243 535 491 126 319 113 778 -31 1066 -121 242 -313 389 -575 441 -68 13
-271 17 -332 7z m316 -395 c95 -50 166 -157 199 -303 22 -94 31 -422 16 -540
-25 -183 -86 -314 -177 -374 -61 -40 -111 -53 -201 -53 -105 0 -166 24 -233
91 -95 95 -137 238 -147 491 -9 235 22 438 85 553 33 61 109 131 165 151 30
11 71 15 142 13 85 -3 108 -7 151 -29z"/>
<path d="M9530 2749 c-94 -12 -251 -65 -327 -110 -87 -51 -229 -199 -282 -292
-95 -168 -130 -316 -138 -574 -8 -283 19 -439 109 -623 44 -89 64 -117 133
-185 91 -91 162 -136 275 -176 122 -43 225 -59 389 -59 216 0 344 26 445 90
l46 30 0 185 c0 102 -2 185 -4 185 -2 0 -30 -16 -62 -35 -33 -20 -95 -48 -139
-62 -72 -24 -95 -27 -230 -27 -148 -1 -151 -1 -215 30 -119 58 -195 161 -242
331 -30 109 -33 450 -4 558 75 286 249 407 539 375 106 -12 231 -47 310 -86
l47 -25 -2 198 -3 198 -64 23 c-135 48 -416 73 -581 51z"/>
<path d="M12685 2754 c-159 -18 -347 -71 -482 -136 l-83 -40 0 -194 c0 -107 2
-194 5 -194 2 0 28 14 57 31 172 102 429 167 615 156 117 -7 161 -20 212 -64
53 -44 72 -105 74 -230 l2 -98 -175 -7 c-386 -14 -621 -88 -775 -243 -117
-117 -162 -244 -151 -430 10 -185 60 -311 165 -416 113 -113 240 -159 441
-159 192 0 320 41 427 135 29 26 57 44 62 41 4 -3 11 -23 15 -43 3 -21 11 -55
16 -75 l11 -38 226 0 226 0 -8 83 c-4 45 -11 390 -14 767 -8 753 -7 733 -73
867 -41 84 -136 174 -225 215 -97 44 -224 67 -388 72 -77 2 -158 2 -180 0z
m405 -1303 l0 -229 -55 -50 c-164 -150 -438 -130 -530 38 -28 51 -30 63 -30
155 0 83 4 107 22 140 65 121 201 171 481 174 l112 1 0 -229z"/>
<path d="M18160 2754 c-181 -21 -342 -66 -486 -133 l-84 -40 0 -195 0 -194 93
47 c191 97 395 146 578 139 93 -4 114 -8 165 -34 97 -48 124 -106 124 -266 l0
-98 -114 0 c-63 0 -160 -5 -217 -10 -515 -53 -768 -257 -769 -622 0 -199 60
-359 175 -467 117 -109 238 -151 432 -151 189 0 308 38 428 136 32 25 60 42
64 37 4 -4 13 -37 20 -73 7 -36 15 -68 17 -72 3 -5 107 -8 231 -8 l226 0 -7
53 c-4 28 -11 372 -15 762 -7 690 -8 712 -30 783 -67 225 -200 339 -451 388
-75 15 -313 26 -380 18z m390 -1303 l0 -229 -55 -50 c-164 -150 -439 -130
-530 38 -27 51 -30 63 -30 155 0 84 4 107 22 140 65 122 201 171 481 174 l112
1 0 -229z"/>
<path d="M10377 2733 c-4 -3 -7 -87 -7 -185 l0 -178 275 0 275 0 0 -805 0
-805 233 2 232 3 3 803 2 802 270 0 270 0 -2 183 -3 182 -771 3 c-424 1 -774
-1 -777 -5z"/>
<path d="M13930 1751 l0 -991 404 0 c442 0 562 8 694 46 250 72 392 239 409
479 17 246 -99 412 -337 481 -56 17 -70 24 -55 29 127 43 244 147 286 252 21
51 24 74 24 193 -1 115 -4 143 -23 190 -46 115 -146 208 -269 252 -132 46
-175 49 -665 55 l-468 5 0 -991z m865 602 c79 -42 107 -91 107 -188 1 -72 -26
-132 -71 -164 -60 -43 -108 -52 -276 -54 l-160 -2 -3 218 -2 219 182 -4 c163
-3 187 -6 223 -25z m18 -774 c21 -7 55 -28 77 -46 97 -83 89 -280 -14 -358
-60 -45 -112 -55 -303 -55 l-173 0 0 241 0 241 188 -5 c115 -3 202 -10 225
-18z"/>
<path d="M15760 1750 l0 -990 230 0 230 0 2 485 3 485 325 -462 c179 -254 334
-473 345 -485 l20 -24 258 3 258 3 -371 529 c-356 508 -370 529 -356 551 8 13
155 218 327 456 l311 434 -223 3 c-123 1 -229 0 -235 -2 -6 -2 -157 -207 -335
-456 l-324 -451 -3 455 -2 456 -230 0 -230 0 0 -990z"/>
</g>
</svg>
