<?xml version="1.0" encoding="utf-8"?>
<svg version="1.0" width="512.000000pt" height="512.000000pt" viewBox="0 0 512.000000 512.000000" preserveAspectRatio="xMidYMid meet" xmlns="http://www.w3.org/2000/svg">
  <g transform="translate(0.000000,512.000000) scale(0.100000,-0.100000)" fill="#000000" stroke="none">
    <path d="M3018 5105 c-372 -61 -710 -308 -876 -640 -94 -189 -126 -327 -126 -540 0 -227 37 -372 152 -597 2 -5 -485 -8 -1082 -8 l-1086 0 0 -1660 0 -1660 2560 0 2560 0 0 1660 0 1660 -440 0 -439 0 38 78 c50 99 86 212 107 332 23 136 15 351 -19 481 -115 441 -444 767 -882 875 -128 32 -339 40 -467 19z m413 -313 c343 -90 603 -377 660 -726 15 -95 7 -288 -16 -371 -23 -84 -86 -215 -141 -293 -26 -38 -195 -215 -386 -406 l-340 -339 -345 344 c-364 364 -424 435 -481 575 -53 127 -67 206 -66 354 1 160 21 247 87 385 125 257 372 442 664 495 77 14 278 4 364 -18z m-2471 -2002 l0 -230 -330 0 -330 0 0 230 0 230 330 0 330 0 0 -230z m970 0 l0 -230 -332 2 -333 3 -3 215 c-1 118 0 220 2 227 4 10 77 13 336 13 l330 0 0 -230z m875 -160 c214 -214 394 -390 400 -390 6 0 152 142 325 315 173 173 318 315 322 315 5 0 8 -239 8 -530 l0 -530 -611 2 -611 3 -204 319 -204 319 0 284 0 283 93 0 92 0 390 -390z m2015 -215 l0 -605 -330 0 -330 0 0 605 0 605 330 0 330 0 0 -605z m-3860 -1135 l0 -980 -330 0 -330 0 0 980 0 980 330 0 330 0 0 -980z m1244 658 l206 -323 0 -277 0 -278 -575 0 -575 0 0 600 0 600 369 0 369 0 206 -322z m1656 -653 l0 -225 -575 0 -575 0 0 225 0 225 575 0 575 0 0 -225z m960 -380 l0 -605 -330 0 -330 0 0 605 0 605 330 0 330 0 0 -605z m-2410 -375 l0 -230 -575 0 -575 0 0 230 0 230 575 0 575 0 0 -230z m1450 0 l0 -230 -575 0 -575 0 0 230 0 230 575 0 575 0 0 -230z" style=""/>
    <path d="M3110 4514 c-123 -24 -230 -81 -320 -173 -87 -87 -132 -165 -160 -277 -36 -141 -17 -285 56 -424 43 -82 136 -180 219 -229 227 -137 529 -98 721 94 115 115 174 257 174 420 0 102 -15 166 -61 260 -98 201 -288 324 -509 331 -52 1 -106 0 -120 -2z m187 -309 c61 -18 144 -88 176 -149 32 -60 32 -203 -1 -263 -51 -96 -137 -153 -243 -161 -122 -9 -230 52 -287 162 -35 69 -38 189 -5 252 75 142 212 203 360 159z" style="fill: rgb(252, 224, 0);"/>
  </g>
</svg>