<svg width="273" height="87" viewBox="0 0 273 87" fill="none" xmlns="http://www.w3.org/2000/svg">
<path d="M159.186 16.365L166.569 11.0551H141.857V42.9435H166.567V37.637H148.91V29.4714H163.972V24.1632H148.908V16.3667L159.186 16.365ZM123.206 23.4863H114.625V16.365H128.325L135.708 11.0551H107.574V42.9435H122.296C130.555 42.9435 135.292 39.2918 135.292 32.9257C135.294 26.8403 131.002 23.4863 123.206 23.4863ZM121.979 37.6336H114.625V28.7945H121.979C126.455 28.7945 128.539 30.2742 128.539 33.2149C128.54 36.2185 126.334 37.6336 121.979 37.6336ZM186.589 11.0568H173.134V42.9435H180.187V33.9122H186.589C195.176 33.9122 200.508 29.5071 200.508 22.4675C200.508 15.4296 195.174 11.0568 186.589 11.0568ZM186.438 28.6023H180.187V16.365H186.438C190.958 16.365 193.445 18.5369 193.445 22.4828C193.445 26.4287 190.956 28.6023 186.438 28.6023ZM95.4675 36.0382C93.6598 37.0111 91.5543 37.5247 89.3802 37.5247C83.0224 37.5247 78.4073 33.0975 78.4073 26.9967C78.4073 20.8959 83.0224 16.4688 89.3802 16.4688C91.7854 16.4688 93.9406 17.1287 95.7945 18.4264L100.853 14.7901L100.517 14.5026C97.5646 11.9701 93.6187 10.6333 89.1063 10.6333C84.2122 10.6333 79.7699 12.244 76.5996 15.1659C73.4087 18.1083 71.6523 22.2447 71.6523 26.8181C71.6523 31.412 73.4053 35.6113 76.5825 38.6421C79.7699 41.6832 84.2019 43.3585 89.0618 43.3585C94.146 43.3585 98.5848 41.6287 101.593 38.4823L97.0287 35.2014L95.4675 36.0382Z" fill="#209F38"/>
<path d="M102.988 61.987L92.4945 79.0579H89.557L78.8306 62.2149V86.1248H73V54.0017H80.3678L91.1867 71.486L101.915 54.0017H108.817V86.1265H102.986V61.987H102.988ZM133.257 54.0017L146.688 86.1265H140.486L137.36 78.5086H122.388L119.311 86.1265H113.388L126.636 54.0017H133.26H133.257ZM124.489 73.231H135.215L129.85 60.06L124.489 73.231ZM157.135 76.1206V86.1265H151.305V54.0017H162.172C172.477 54.0017 176.863 57.6278 176.863 64.8783C176.863 72.3619 171.732 76.124 162.172 76.124H157.135V76.1206ZM157.135 59.2776V70.8431H162.591C168.001 70.8431 170.799 69.098 170.799 64.7372C170.799 60.7913 168.375 59.2776 162.685 59.2776H157.135ZM189.128 86.1248H183.298V54.0017H189.128V67.4925H194.026L204.519 54.0017H211.61L199.158 69.2834L213.616 86.1265H206.154L194.308 72.2207H189.132V86.1248H189.128ZM239.078 72.2207H224.06V80.8489H241.316V86.1265H218.23V54.0017H240.802V59.2793H224.057V66.9431H239.076V72.2207H239.078ZM272.519 59.2793H261.51V86.1248H255.68V59.2776H244.861V54H272.517L272.519 59.2793Z" fill="#FF8000"/>
<path d="M48.6487 10.7983C49.9291 12.4158 51.0264 14.1829 51.9012 16.0657L27.1599 33.8595L16.8203 27.5359V19.9317L27.1599 26.2535L48.6504 10.8017L48.6487 10.7983Z" fill="#209F38"/>
<path d="M6.27391 26.9997C6.27391 26.6579 6.28247 26.3194 6.29959 25.9809L0.0342369 25.6748C0.0136948 26.1136 0 26.5558 0 26.998C0 34.3132 3.03853 40.9395 7.95495 45.7324L12.3972 41.3987C8.61572 37.7097 6.27391 32.6158 6.27391 26.998V26.9997Z" fill="url(#paint0_linear_77_1026)"/>
<path d="M27.1566 6.62271C27.5058 6.62271 27.8533 6.63461 28.2008 6.65162L28.5124 0.537233C24.7336 0.340375 20.9549 0.925695 17.4158 2.25609C13.8767 3.58648 10.6544 5.63292 7.95312 8.26568L12.3988 12.5959C16.3372 8.75719 21.6377 6.61218 27.1549 6.62441L27.1566 6.62271Z" fill="url(#paint1_linear_77_1026)"/>
<path d="M27.1585 47.3758C26.8093 47.3758 26.4618 47.3673 26.1143 47.3503L25.8027 53.463C29.5815 53.6598 33.3602 53.0745 36.8993 51.7441C40.4385 50.4137 43.6608 48.3673 46.362 45.7345L41.9181 41.4009C37.9781 45.2397 32.6768 47.3851 27.1585 47.3741V47.3758Z" fill="url(#paint2_linear_77_1026)"/>
<path d="M38.932 10.1789L44.2148 6.381C39.3624 2.55927 33.3483 0.486921 27.1562 0.503023V6.62591C31.3498 6.61691 35.4502 7.85426 38.9303 10.1789H38.932Z" fill="url(#paint3_linear_77_1026)"/>
<path d="M54.3142 27.0001C54.3142 25.3792 54.1653 23.7924 53.8794 22.2515L48.0335 26.4541C48.0369 26.6344 48.042 26.8164 48.042 26.9984C48.042 32.9784 45.3852 38.3683 41.1621 42.0981L45.3784 46.6444C50.8648 41.7988 54.3142 34.7915 54.3142 27.0001Z" fill="#209F38"/>
<path d="M27.1596 47.3757C24.2525 47.3818 21.3758 46.7883 18.7114 45.6328C16.0471 44.4772 13.6532 42.7848 11.6811 40.6626L7.02148 44.7734C9.58748 47.5333 12.7024 49.7336 16.1689 51.2349C19.6355 52.7362 23.3781 53.5059 27.1596 53.4952V47.3723V47.3757Z" fill="url(#paint4_linear_77_1026)"/>
<path d="M13.1538 11.8968L8.93755 7.35059C3.44766 12.1979 0 19.2052 0 27H6.27391C6.27563 21.0165 8.9307 15.6301 13.1538 11.8985V11.8968Z" fill="url(#paint5_linear_77_1026)"/>
<defs>
<linearGradient id="paint0_linear_77_1026" x1="7.33926" y1="44.9672" x2="1.02917" y2="26.9389" gradientUnits="userSpaceOnUse">
<stop offset="0.1444" stop-color="#F0E715"/>
<stop offset="0.3037" stop-color="#E5E31A"/>
<stop offset="0.5823" stop-color="#C8D928"/>
<stop offset="0.891" stop-color="#A1CB3A"/>
</linearGradient>
<linearGradient id="paint1_linear_77_1026" x1="9.74425" y1="7.52834" x2="25.966" y2="1.41833" gradientUnits="userSpaceOnUse">
<stop offset="0.0592" stop-color="#11A6DE"/>
<stop offset="0.5385" stop-color="#0397F7"/>
<stop offset="0.9234" stop-color="#068FE9"/>
</linearGradient>
<linearGradient id="paint2_linear_77_1026" x1="25.3887" y1="48.276" x2="44.7349" y2="43.9557" gradientUnits="userSpaceOnUse">
<stop offset="0.1226" stop-color="#A1CB3A"/>
<stop offset="0.2712" stop-color="#87C23A"/>
<stop offset="0.8693" stop-color="#229D38"/>
</linearGradient>
<linearGradient id="paint3_linear_77_1026" x1="25.8434" y1="4.43234" x2="41.93" y2="9.33824" gradientUnits="userSpaceOnUse">
<stop offset="0.0566" stop-color="#068FE9"/>
<stop offset="0.79" stop-color="#0C88C9"/>
</linearGradient>
<linearGradient id="paint4_linear_77_1026" x1="8.59528" y1="45.8244" x2="25.8512" y2="52.1974" gradientUnits="userSpaceOnUse">
<stop offset="0.1324" stop-color="#F0E715"/>
<stop offset="0.2977" stop-color="#E9E518"/>
<stop offset="0.5306" stop-color="#D7DE21"/>
<stop offset="0.8023" stop-color="#B9D42F"/>
<stop offset="0.9829" stop-color="#A1CB3A"/>
</linearGradient>
<linearGradient id="paint5_linear_77_1026" x1="4.70157" y1="27.7415" x2="11.5312" y2="10.1835" gradientUnits="userSpaceOnUse">
<stop offset="0.0698" stop-color="#A1CB3A"/>
<stop offset="0.2479" stop-color="#82C35D"/>
<stop offset="0.9216" stop-color="#11A6DE"/>
</linearGradient>
</defs>
</svg>
