<svg width="427" height="56" viewBox="0 0 427 56" fill="none" xmlns="http://www.w3.org/2000/svg">
<path d="M163.426 16.7608L171.056 11.1543L145.529 11.1543L145.529 44.8459L171.056 44.8459L171.056 39.2393L152.812 39.2393L152.812 30.6104L168.375 30.6104L168.375 24.9973L152.812 24.9973L152.812 16.7608L163.426 16.7608Z" fill="#209F38"/>
<path d="M126.255 24.2839L117.392 24.2839L117.392 16.7605L131.545 16.7605L139.176 11.1475L110.109 11.1475L110.109 44.8456L125.318 44.8456C133.853 44.8456 138.744 40.9858 138.744 34.2605C138.744 27.8297 134.305 24.2839 126.255 24.2839ZM124.99 39.239L117.392 39.239L117.392 29.897L124.99 29.897C129.612 29.897 131.768 31.4605 131.768 34.568C131.768 37.7409 129.487 39.239 124.99 39.239Z" fill="#209F38"/>
<path d="M191.739 11.1543L177.841 11.1543L177.841 44.8459L185.125 44.8459L185.125 35.301L191.739 35.301C200.609 35.301 206.122 30.6496 206.122 23.2113C206.116 15.773 200.609 11.1543 191.739 11.1543ZM191.582 29.6945L185.125 29.6945L185.125 16.7608L191.582 16.7608C196.25 16.7608 198.819 19.0571 198.819 23.2244C198.819 27.3917 196.25 29.6945 191.582 29.6945Z" fill="#209F38"/>
<path d="M97.6004 37.5515C95.7321 38.5786 93.5556 39.1216 91.3136 39.1216C84.7448 39.1216 79.9789 34.4441 79.9789 28.0001C79.9789 21.5562 84.7448 16.8721 91.3136 16.8721C93.7982 16.8721 96.0271 17.5721 97.9413 18.9394L103.166 15.0992L102.819 14.7983C99.7704 12.1226 95.6928 10.7095 91.0317 10.7095C85.9773 10.7095 81.3883 12.4104 78.1105 15.4983C74.813 18.6057 73.0037 22.9824 73.0037 27.8104C73.0037 32.6646 74.813 37.1001 78.0974 40.3057C81.3883 43.5179 85.9707 45.2908 90.9924 45.2908C96.2434 45.2908 100.832 43.4656 103.94 40.1356C101.54 38.3693 99.2262 36.6684 99.2262 36.6684L97.6004 37.5515Z" fill="#209F38"/>
<path d="M51.0543 10.8076C52.3981 12.5051 53.5496 14.3596 54.4677 16.3355L28.5029 35.0092L17.6521 28.3729V20.3926L28.5029 27.0271L51.0561 10.8112L51.0543 10.8076Z" fill="#209F38"/>
<path d="M6.58415 27.8104C6.58415 27.4516 6.59314 27.0964 6.6111 26.7412L0.0359299 26.4199C0.014372 26.8804 0 27.3445 0 27.8086C0 35.4855 3.18878 42.4395 8.34831 47.4693L13.0102 42.9214C9.04176 39.0499 6.58415 33.7041 6.58415 27.8086V27.8104Z" fill="url(#paint0_linear_77_1040)"/>
<path d="M28.4995 6.42547C28.866 6.42547 29.2307 6.43796 29.5954 6.45581L29.9223 0.0390743C25.9567 -0.167519 21.9911 0.446746 18.277 1.84292C14.5629 3.2391 11.1812 5.38674 8.34644 8.14969L13.0119 12.6941C17.1451 8.6655 22.7077 6.41442 28.4977 6.42725L28.4995 6.42547Z" fill="url(#paint1_linear_77_1040)"/>
<path d="M28.5014 49.1937C28.135 49.1937 27.7703 49.1848 27.4056 49.1669L27.0786 55.5819C31.0442 55.7885 35.0098 55.1742 38.7239 53.778C42.4381 52.3819 45.8197 50.2342 48.6545 47.4713L43.9908 42.9233C39.856 46.9519 34.2926 49.2035 28.5014 49.1919V49.1937Z" fill="url(#paint2_linear_77_1040)"/>
<path d="M40.8571 10.1574L46.4011 6.17166C41.3088 2.16095 34.9972 -0.0138707 28.499 0.00302742V6.42869C32.8999 6.41924 37.2031 7.71777 40.8553 10.1574H40.8571Z" fill="url(#paint3_linear_77_1040)"/>
<path d="M57 27.8106C57 26.1096 56.8437 24.4443 56.5437 22.8271L50.4086 27.2377C50.4122 27.4269 50.4176 27.6178 50.4176 27.8088C50.4176 34.0846 47.6295 39.7409 43.1975 43.6552L47.6223 48.4263C53.38 43.3411 57 35.9873 57 27.8106Z" fill="#209F38"/>
<path d="M28.5027 49.1935C25.4519 49.1999 22.4329 48.577 19.6368 47.3644C16.8407 46.1517 14.3284 44.3756 12.2588 42.1484L7.36877 46.4626C10.0617 49.3589 13.3306 51.668 16.9686 53.2435C20.6065 54.8191 24.5342 55.6268 28.5027 55.6156V49.1899V49.1935Z" fill="url(#paint4_linear_77_1040)"/>
<path d="M13.8043 11.96L9.3795 7.18896C3.61814 12.2759 0 19.6298 0 27.81H6.58415C6.58595 21.5307 9.37231 15.8779 13.8043 11.9618V11.96Z" fill="url(#paint5_linear_77_1040)"/>
<path d="M253.979 19.5284L243.136 37.4144L240.1 37.4144L229.015 19.7639L229.015 44.8135L222.99 44.8135L222.99 11.1611L230.601 11.1611L241.779 29.4789L252.864 11.1611L259.997 11.1611L259.997 44.82L253.972 44.82L253.972 19.5284L253.979 19.5284Z" fill="#FF8000"/>
<path d="M298.649 44.82L292.238 44.82L289.012 36.8387L273.548 36.8387L270.368 44.82L264.252 44.82L277.933 11.1611L284.777 11.1611L298.649 44.82ZM286.797 31.3041L281.257 17.5004L275.718 31.3041L286.797 31.3041Z" fill="#FF8000"/>
<path d="M308.954 34.3331L308.954 44.8135L302.93 44.8135L302.93 11.1611L314.159 11.1611C324.806 11.1611 329.336 14.9621 329.336 22.5574C329.336 30.3948 324.039 34.3396 314.159 34.3396L308.954 34.3396L308.954 34.3331ZM308.954 16.6892L308.954 28.8051L314.592 28.8051C320.184 28.8051 323.075 26.9798 323.075 22.4069C323.075 18.2723 320.571 16.6826 314.69 16.6826L308.954 16.6826L308.954 16.6892Z" fill="#FF8000"/>
<path d="M341.529 44.82L335.505 44.82L335.505 11.1611L341.529 11.1611L341.529 25.2985L346.59 25.2985L357.433 11.1611L364.756 11.1611L351.894 27.1761L366.834 44.8266L359.118 44.8266L346.879 30.2574L341.529 30.2574L341.529 44.82Z" fill="#FF8000"/>
<path d="M392.65 30.2509L377.133 30.2509L377.133 39.292L394.964 39.292L394.964 44.82L371.115 44.82L371.115 11.1611L394.44 11.1611L394.44 16.6892L377.14 16.6892L377.14 24.7163L392.657 24.7163L392.657 30.2509L392.65 30.2509Z" fill="#FF8000"/>
<path d="M426.72 16.6892L415.346 16.6892L415.346 44.82L409.321 44.82L409.321 16.6892L398.144 16.6892L398.144 11.1611L426.72 11.1611L426.72 16.6892Z" fill="#FF8000"/>
<defs>
<linearGradient id="paint0_linear_77_1040" x1="7.70218" y1="46.6663" x2="1.08006" y2="27.7466" gradientUnits="userSpaceOnUse">
<stop offset="0.1444" stop-color="#F0E715"/>
<stop offset="0.3037" stop-color="#E5E31A"/>
<stop offset="0.5823" stop-color="#C8D928"/>
<stop offset="0.891" stop-color="#A1CB3A"/>
</linearGradient>
<linearGradient id="paint1_linear_77_1040" x1="10.2261" y1="7.37588" x2="27.2501" y2="0.963744" gradientUnits="userSpaceOnUse">
<stop offset="0.0592" stop-color="#11A6DE"/>
<stop offset="0.5385" stop-color="#0397F7"/>
<stop offset="0.9234" stop-color="#068FE9"/>
</linearGradient>
<linearGradient id="paint2_linear_77_1040" x1="26.6441" y1="50.1384" x2="46.9469" y2="45.6045" gradientUnits="userSpaceOnUse">
<stop offset="0.1226" stop-color="#A1CB3A"/>
<stop offset="0.2712" stop-color="#87C23A"/>
<stop offset="0.8693" stop-color="#229D38"/>
</linearGradient>
<linearGradient id="paint3_linear_77_1040" x1="27.1213" y1="4.12664" x2="44.0033" y2="9.27514" gradientUnits="userSpaceOnUse">
<stop offset="0.0566" stop-color="#068FE9"/>
<stop offset="0.79" stop-color="#0C88C9"/>
</linearGradient>
<linearGradient id="paint4_linear_77_1040" x1="9.02039" y1="47.5655" x2="27.1296" y2="54.2536" gradientUnits="userSpaceOnUse">
<stop offset="0.1324" stop-color="#F0E715"/>
<stop offset="0.2977" stop-color="#E9E518"/>
<stop offset="0.5306" stop-color="#D7DE21"/>
<stop offset="0.8023" stop-color="#B9D42F"/>
<stop offset="0.9829" stop-color="#A1CB3A"/>
</linearGradient>
<linearGradient id="paint5_linear_77_1040" x1="4.93406" y1="28.5882" x2="12.1014" y2="10.162" gradientUnits="userSpaceOnUse">
<stop offset="0.0698" stop-color="#A1CB3A"/>
<stop offset="0.2479" stop-color="#82C35D"/>
<stop offset="0.9216" stop-color="#11A6DE"/>
</linearGradient>
</defs>
</svg>
