<svg width="275" height="89" viewBox="0 0 275 89" fill="none" xmlns="http://www.w3.org/2000/svg">
<path d="M161.269 17.3322L168.757 11.8418L143.709 11.8418L143.709 44.8357L168.757 44.8357L168.757 39.3453L150.856 39.3453L150.856 30.895L166.126 30.895L166.126 25.3981L150.856 25.3981L150.856 17.3322L161.269 17.3322Z" fill="white"/>
<path d="M124.798 24.6999L116.102 24.6999L116.102 17.3323L129.989 17.3323L137.476 11.8354L108.956 11.8354L108.956 44.8358L123.878 44.8358C132.253 44.8358 137.052 41.0559 137.052 34.4699C137.052 28.1722 132.697 24.6999 124.798 24.6999ZM123.557 39.3453L116.102 39.3453L116.102 30.1967L123.557 30.1967C128.092 30.1967 130.208 31.7279 130.208 34.771C130.208 37.8782 127.969 39.3453 123.557 39.3453Z" fill="white"/>
<path d="M189.051 11.8418L175.414 11.8418L175.414 44.8357L182.56 44.8357L182.56 35.4885L189.051 35.4885C197.753 35.4885 203.163 30.9334 203.163 23.6491C203.157 16.3648 197.753 11.8418 189.051 11.8418ZM188.896 29.9981L182.56 29.9981L182.56 17.3322L188.896 17.3322C193.476 17.3322 195.997 19.5809 195.997 23.6619C195.997 27.7429 193.476 29.9981 188.896 29.9981Z" fill="white"/>
<path d="M96.6827 37.6925C94.8495 38.6983 92.714 39.23 90.5141 39.23C84.0689 39.23 79.3927 34.6493 79.3927 28.3388C79.3927 22.0284 84.0689 17.4413 90.5141 17.4413C92.9519 17.4413 95.1389 18.1268 97.0172 19.4657L102.144 15.7051L101.803 15.4104C98.8118 12.7901 94.8109 11.4062 90.2375 11.4062C85.2782 11.4062 80.7756 13.072 77.5595 16.0959C74.324 19.139 72.5487 23.425 72.5487 28.1531C72.5487 32.9067 74.324 37.2504 77.5466 40.3896C80.7756 43.5353 85.2718 45.2714 90.1989 45.2714C95.3512 45.2714 99.8538 43.484 102.903 40.2231C100.548 38.4933 98.2779 36.8276 98.2779 36.8276L96.6827 37.6925Z" fill="white"/>
<path d="M55.9791 28.3386C55.9791 26.6601 55.8247 25.02 55.5353 23.4248L49.6111 27.7749C49.6176 27.9606 49.6176 28.1464 49.6176 28.3386C49.6176 39.9666 40.1235 49.4227 28.4489 49.4227C16.7743 49.4227 7.28018 39.9666 7.28018 28.3386C7.28018 16.7107 16.7743 7.25457 28.4489 7.25457C32.8743 7.25457 36.9845 8.61276 40.3808 10.9319L45.7324 7.00471C41.0111 3.1992 34.9969 0.918457 28.4489 0.918457C13.2429 0.918457 0.91864 13.1935 0.91864 28.3386C0.91864 43.4838 13.2429 55.7588 28.4489 55.7588C43.6548 55.7588 55.9791 43.4774 55.9791 28.3386Z" fill="white"/>
<path d="M50.2349 11.5728C51.5342 13.2449 52.647 15.0707 53.5346 17.0248L28.4487 35.4373L17.9705 28.8962L17.9705 21.0225L28.4487 27.5636L50.2349 11.5728Z" fill="white"/>
<path d="M104.659 63.9338L94.0195 81.4494L91.0413 81.4494L80.1643 64.1644L80.1643 88.6952L74.2531 88.6952L74.2531 55.7397L81.7209 55.7397L92.688 73.6782L103.565 55.7397L110.563 55.7397L110.563 88.7016L104.652 88.7016L104.652 63.9338L104.659 63.9338Z" fill="white"/>
<path d="M148.482 88.7016L142.191 88.7016L139.026 80.8856L123.853 80.8856L120.733 88.7016L114.732 88.7016L128.156 55.7397L134.871 55.7397L148.482 88.7016ZM136.852 75.4656L131.417 61.9541L125.982 75.4656L136.852 75.4656Z" fill="white"/>
<path d="M158.6 78.4319L158.6 88.6952L152.688 88.6952L152.688 55.7397L163.707 55.7397C174.153 55.7397 178.598 59.462 178.598 66.9C178.598 74.5751 173.4 78.4383 163.707 78.4383L158.6 78.4383L158.6 78.4319ZM158.6 61.1533L158.6 73.0183L164.132 73.0183C169.618 73.0183 172.455 71.2309 172.455 66.7527C172.455 62.7037 169.998 61.1469 164.228 61.1469L158.6 61.1469L158.6 61.1533Z" fill="white"/>
<path d="M190.555 88.7016L184.644 88.7016L184.644 55.7397L190.555 55.7397L190.555 69.5844L195.521 69.5844L206.16 55.7397L213.345 55.7397L200.725 71.4231L215.384 88.708L207.82 88.708L195.811 74.4406L190.562 74.4406L190.562 88.7016L190.555 88.7016Z" fill="white"/>
<path d="M240.721 74.4342L225.495 74.4342L225.495 83.2881L242.991 83.2881L242.991 88.7016L219.591 88.7016L219.591 55.7397L242.477 55.7397L242.477 61.1533L225.502 61.1533L225.502 69.0206L240.727 69.0206L240.727 74.4342L240.721 74.4342Z" fill="white"/>
<path d="M274.143 61.1533L262.983 61.1533L262.983 88.7016L257.072 88.7016L257.072 61.1533L246.105 61.1533L246.105 55.7397L274.143 55.7397L274.143 61.1533Z" fill="white"/>
</svg>
