<svg width="419" height="56" viewBox="0 0 419 56" fill="none" xmlns="http://www.w3.org/2000/svg">
<path d="M161.03 17.3395L168.506 11.8467L143.496 11.8467L143.496 44.855L168.506 44.855L168.506 39.3622L150.632 39.3622L150.632 30.9082L165.879 30.9082L165.879 25.4089L150.632 25.4089L150.632 17.3395L161.03 17.3395Z" fill="white"/>
<path d="M124.613 24.7099L115.93 24.7099L115.93 17.3391L129.797 17.3391L137.273 11.8398L108.794 11.8398L108.794 44.8546L123.695 44.8546C132.057 44.8546 136.849 41.0731 136.849 34.4842C136.849 28.1838 132.5 24.7099 124.613 24.7099ZM123.374 39.3618L115.93 39.3618L115.93 30.2092L123.374 30.2092C127.902 30.2092 130.015 31.741 130.015 34.7855C130.015 37.894 127.78 39.3618 123.374 39.3618Z" fill="white"/>
<path d="M188.77 11.8467L175.154 11.8467L175.154 44.855L182.289 44.855L182.289 35.5037L188.77 35.5037C197.46 35.5037 202.861 30.9467 202.861 23.6592C202.855 16.3717 197.46 11.8467 188.77 11.8467ZM188.616 30.0109L182.289 30.0109L182.289 17.3395L188.616 17.3395C193.189 17.3395 195.706 19.5892 195.706 23.672C195.706 27.7548 193.189 30.0109 188.616 30.0109Z" fill="white"/>
<path d="M96.5399 37.7084C94.7094 38.7146 92.5771 39.2466 90.3805 39.2466C83.945 39.2466 79.2757 34.6639 79.2757 28.3507C79.2757 22.0374 83.945 17.4483 90.3805 17.4483C92.8147 17.4483 94.9984 18.1341 96.8739 19.4737L101.993 15.7113L101.652 15.4165C98.6658 12.7951 94.6709 11.4106 90.1043 11.4106C85.1524 11.4106 80.6565 13.0771 77.4452 16.1023C74.2146 19.1468 72.4419 23.4347 72.4419 28.1648C72.4419 32.9206 74.2146 37.2661 77.4323 40.4067C80.6565 43.5537 85.146 45.2907 90.0658 45.2907C95.2104 45.2907 99.7063 43.5025 102.751 40.2401C100.4 38.5095 98.1327 36.8431 98.1327 36.8431L96.5399 37.7084Z" fill="white"/>
<path d="M55.897 28.3506C55.897 26.6714 55.7428 25.0306 55.4538 23.4346L49.5385 27.7866C49.5449 27.9725 49.5449 28.1584 49.5449 28.3506C49.5449 39.9837 40.065 49.444 28.4078 49.444C16.7506 49.444 7.27069 39.9837 7.27069 28.3506C7.27069 16.7176 16.7506 7.25734 28.4078 7.25734C32.8266 7.25734 36.9307 8.61613 40.3219 10.9363L45.6656 7.00738C40.9513 3.2002 34.9461 0.918457 28.4078 0.918457C13.2245 0.918457 0.91864 13.1988 0.91864 28.3506C0.91864 43.5024 13.2245 55.7828 28.4078 55.7828C43.5911 55.7828 55.897 43.496 55.897 28.3506Z" fill="white"/>
<path d="M50.1615 11.5771C51.4589 13.25 52.57 15.0767 53.4564 17.0315L28.4078 35.4521L17.9453 28.9081L17.9453 21.031L28.4078 27.575L50.1615 11.5771Z" fill="white"/>
<path d="M249.747 20.0506L239.124 37.5739L236.15 37.5739L225.289 20.2814L225.289 44.8229L219.387 44.8229L219.387 11.853L226.843 11.853L237.794 29.7993L248.655 11.853L255.643 11.853L255.643 44.8293L249.74 44.8293L249.74 20.0506L249.747 20.0506Z" fill="white"/>
<path d="M293.511 44.8293L287.23 44.8293L284.07 37.0099L268.919 37.0099L265.804 44.8293L259.812 44.8293L273.216 11.853L279.921 11.853L293.511 44.8293ZM281.899 31.5875L276.472 18.0637L271.045 31.5875L281.899 31.5875Z" fill="white"/>
<path d="M303.608 34.5551L303.608 44.8229L297.705 44.8229L297.705 11.853L308.707 11.853C319.138 11.853 323.576 15.5769 323.576 23.0182C323.576 30.6966 318.386 34.5615 308.707 34.5615L303.608 34.5615L303.608 34.5551ZM303.608 17.269L303.608 29.1392L309.131 29.1392C314.61 29.1392 317.442 27.3509 317.442 22.8708C317.442 18.82 314.989 17.2626 309.228 17.2626L303.608 17.2626L303.608 17.269Z" fill="white"/>
<path d="M335.522 44.8293L329.62 44.8293L329.62 11.853L335.522 11.853L335.522 25.7037L340.48 25.7037L351.104 11.853L358.278 11.853L345.676 27.5432L360.314 44.8357L352.754 44.8357L340.763 30.562L335.522 30.562L335.522 44.8293Z" fill="white"/>
<path d="M385.606 30.5556L370.404 30.5556L370.404 39.4134L387.873 39.4134L387.873 44.8293L364.508 44.8293L364.508 11.853L387.36 11.853L387.36 17.269L370.41 17.269L370.41 25.1333L385.613 25.1333L385.613 30.5556L385.606 30.5556Z" fill="white"/>
<path d="M418.985 17.269L407.842 17.269L407.842 44.8293L401.939 44.8293L401.939 17.269L390.989 17.269L390.989 11.853L418.985 11.853L418.985 17.269Z" fill="white"/>
</svg>
